<svg xmlns="http://www.w3.org/2000/svg" xmlns:xlink="http://www.w3.org/1999/xlink" width="188.643" height="188.643" viewBox="0 0 188.643 188.643"><defs><style>.a{fill:#fff;}.b{fill:#007fff;}.c{filter:url(#a);}</style><filter id="a" x="0" y="0" width="188.643" height="188.643" filterUnits="userSpaceOnUse"><feOffset dy="3" input="SourceAlpha"/><feGaussianBlur stdDeviation="22.5" result="b"/><feFlood flood-color="#4f5157" flood-opacity="0.212"/><feComposite operator="in" in2="b"/><feComposite in="SourceGraphic"/></filter></defs><g transform="translate(67.5 64.5)"><g class="c" transform="matrix(1, 0, 0, 1, -67.5, -64.5)"><circle class="a" cx="26.821" cy="26.821" r="26.821" transform="translate(67.5 64.5)"/></g><g transform="translate(3657.766 -12631.884)"><path class="b" d="M50.6,14.374h0a4.062,4.062,0,0,1-2.463-1.548,21.43,21.43,0,0,1-2.747-3.755C43.063,5.157,42.234,1.962,42.234.278a8.364,8.364,0,1,1,16.728,0c0,1.684-.829,4.879-3.155,8.792a21.432,21.432,0,0,1-2.747,3.755A4.064,4.064,0,0,1,50.6,14.374ZM47.382-.766a1.457,1.457,0,0,0,0,2.914h1.772v1.9a1.457,1.457,0,0,0,2.914,0v-1.9h1.9a1.457,1.457,0,0,0,0-2.914h-1.9V-2.538A1.459,1.459,0,0,0,50.611-4a1.459,1.459,0,0,0-1.457,1.457V-.766Z" transform="translate(-3681.234 12655.147)"/></g></g></svg>