<svg xmlns="http://www.w3.org/2000/svg" width="22" height="22" viewBox="0 0 22 22"><defs><style>.a{fill:none;opacity:0.004;}.b{stroke:#000;stroke-width:0.5px;}</style></defs><g transform="translate(-322 -65)"><path class="a" d="M0,0H22V22H0Z" transform="translate(322 65)"/><g transform="translate(324.797 67.797)"><path class="b" d="M7.146-1a8.146,8.146,0,1,0,8.146,8.146A8.146,8.146,0,0,0,7.146-1Zm0,14.934a6.788,6.788,0,1,1,6.788-6.788A6.788,6.788,0,0,1,7.146,13.934Z" transform="translate(1 1)"/><path class="b" d="M151.807,85.214a.7.7,0,0,0-.695.695V89.2h-1.5a.695.695,0,1,0,0,1.389h2.2a.7.7,0,0,0,.695-.695V85.908A.7.7,0,0,0,151.807,85.214Z" transform="translate(-143.619 -81.656)"/></g></g></svg>