<svg xmlns="http://www.w3.org/2000/svg" width="30" height="30" viewBox="0 0 30 30"><defs><style>.a{fill:none;}.b{fill:#2b5af7;}</style></defs><g transform="translate(-0.016 -0.016)"><rect class="a" width="30" height="30" transform="translate(0.016 0.016)"/><path class="b" d="M22.833,14.761a9.126,9.126,0,0,1-8.072,8.072v1.124a1.022,1.022,0,1,1-2.044,0V22.833a8.94,8.94,0,0,1-8.072-8.072H3.522a1.022,1.022,0,1,1,0-2.044H4.646a8.94,8.94,0,0,1,8.072-8.072V3.522a1.022,1.022,0,1,1,2.044,0V4.646a9.126,9.126,0,0,1,8.072,8.072h1.124a1.022,1.022,0,1,1,0,2.044Zm-9.094,6.131a7.152,7.152,0,1,0-7.152-7.152,7.108,7.108,0,0,0,7.152,7.152Zm0-3.065a4.087,4.087,0,1,1,4.087-4.087,4.1,4.1,0,0,1-4.087,4.087Zm0-2.044A2.044,2.044,0,1,0,11.7,13.739a2.05,2.05,0,0,0,2.044,2.044Z" transform="translate(1.276 1.276)"/></g></svg>