<svg xmlns="http://www.w3.org/2000/svg" width="27.733" height="41.348" viewBox="0 0 27.733 41.348"><defs><style>.a{fill:#ffc3b1;}.b{fill:#2a78b3;}.c{fill:#161616;}.d{fill:#232323;}.e{fill:#358bc7;}.f{fill:#fff;}.g{fill:#ffab95;}.h{fill:#c4bebb;}.i{fill:#d6cfcc;}.j{fill:#ebe4e0;}.k{fill:#595959;}.l{fill:#2b2b2b;}.m{fill:#3a3a3a;}.n{fill:#2d2d2d;}.o{fill:#444;}.p{fill:#f3605c;}.q{fill:gray;}.r{fill:#c5c5c5;}</style></defs><g transform="translate(159.741 -19.51)"><g transform="translate(-142.729 28.205)"><path class="a" d="M36.241,55.177a2.811,2.811,0,0,0,.2.939c.157.235.235.372.235.372s-.606-.2-.665,0,.254.508.665.508.909-.665.909-.665l-.088-1.389Z" transform="translate(-34.883 -42.915)"/><path class="b" d="M37.08,33.614a1.424,1.424,0,0,0-1.419.269A11.734,11.734,0,0,0,33.4,36.725c-.47.722-.3,1.337-.078,2.284a10.212,10.212,0,0,0,.665,2.195c.235.391,1.328.029,1.389-.37a13.227,13.227,0,0,0-.672-2.971A5.8,5.8,0,0,0,37.08,33.614Z" transform="translate(-32.964 -28.727)"/><path class="c" d="M33.8,104.638c.484-.472,1.116-1.121,1.116-1.121l1.935.161v.729a.916.916,0,0,1-.41.518,9.371,9.371,0,0,1-1.38.719,8.327,8.327,0,0,1-1.844.4c-.463.018-.663-.2-.42-.437C33.212,105.2,33.35,105.075,33.8,104.638Z" transform="translate(-32.692 -75.105)"/><path class="c" d="M42.365,110.036c.484-.472.846-.866.846-.866l2.2-.094v.729a.914.914,0,0,1-.41.518,9.357,9.357,0,0,1-1.38.719,8.3,8.3,0,0,1-1.844.4c-.463.018-.662-.2-.42-.437C41.778,110.6,41.917,110.473,42.365,110.036Z" transform="translate(-38.369 -78.789)"/><path class="d" d="M39.709,56.272c-.915.272-1.76.6-1.76.6s-.582,5.159-.557,7.66c.029,2.93.13,7.813.13,7.813a1.923,1.923,0,0,0,1.559.438,1.534,1.534,0,0,0,1.075-.386l-.026-7.433.644-3.583C40.635,59.039,39.9,58.612,39.709,56.272Z" transform="translate(-35.806 -43.796)"/><path class="d" d="M47.848,74.039a35.738,35.738,0,0,0-.412-7.59c.238-1.939.971-5.4.491-7.488-.6-2.612-1.275-2.163-1.275-2.163.057-.439-.905-.364-1.908-.173,0,1.749-.387,7.575-.157,9.438.317,2.577.631,8.409.631,8.409a2.406,2.406,0,0,0,1.594.132C48.006,74.385,47.848,74.039,47.848,74.039Z" transform="translate(-40.527 -43.931)"/><path class="e" d="M40.226,35.136c.187.078,2.248.231,2.248.231a3.625,3.625,0,0,1,2.21,1.959,12.987,12.987,0,0,1-.207,1.943c-.065.04-.484-.028-.515.062a7.6,7.6,0,0,0-.324,3.679,2.192,2.192,0,0,1-.082,1.257c-1.115,1.319-3.266.672-5.175-.378,0-.123,0-.259,0-.4-.162-.151-.289-.239-.24-.445a8.64,8.64,0,0,0,.232-2.068C38.273,38.677,38.448,36.754,40.226,35.136Z" transform="translate(-36.299 -29.79)"/><path class="f" d="M42.672,38.007s-.058.661-.113,1.233a8.3,8.3,0,0,0,.215,1.787s1.037-1.061,1.259-1.31a5.713,5.713,0,0,0,.535-.852Z" transform="translate(-39.225 -31.692)"/><g transform="translate(3.914 3.975)"><path class="g" d="M46.549,32.625l-.28-1.553-1.676,1.217-.2,1.156a1.284,1.284,0,0,0-.093.581C45.112,33.622,46.021,33.427,46.549,32.625Z" transform="translate(-44.296 -31.072)"/></g><path class="c" d="M38.854,59.886v.5a4.064,4.064,0,0,0,2.435,1.018,5.43,5.43,0,0,0,2.827-.433l-.082-.306a5.807,5.807,0,0,1-2.291.32A6.11,6.11,0,0,1,38.854,59.886Z" transform="translate(-36.775 -46.191)"/><path class="d" d="M43.216,41.975c.145-.127.294-.25.444-.372l.117-1.211-.249-.026a7.036,7.036,0,0,0-.436.914.145.145,0,0,1,.027.084A2.242,2.242,0,0,0,43.216,41.975Z" transform="translate(-39.584 -33.256)"/><path class="d" d="M44.04,38.626a1.346,1.346,0,0,0-.056.835c.023.05.322.085.322.085a2.634,2.634,0,0,0,.348-.755.559.559,0,0,0-.39-.014A.458.458,0,0,0,44.04,38.626Z" transform="translate(-40.142 -32.102)"/><path class="h" d="M49.408,70.534l-.079-1.069a.419.419,0,0,0,.3-.471.387.387,0,0,0-.6-.307.425.425,0,0,0-.16.48.363.363,0,0,0,.258.313s.068.9.083,1.076.057.185.194.165a1.132,1.132,0,0,0,.2-.043L49.6,70.51Zm-.188-1.279c-.183-.018-.233-.438.052-.408a.207.207,0,0,1-.052.408Z" transform="translate(-43.408 -51.981)"/><path class="i" d="M47.8,67.775l.158-1.061a.418.418,0,0,0,.4-.393.387.387,0,0,0-.514-.43.425.425,0,0,0-.261.433.362.362,0,0,0,.182.362s-.131.893-.155,1.068.015.193.153.2a1.13,1.13,0,0,0,.205,0l.021-.168Zm.1-1.29c-.175-.058-.131-.478.14-.387a.207.207,0,0,1-.14.387Z" transform="translate(-42.558 -50.153)"/><path class="j" d="M49.64,67.412l-.079-1.069a.419.419,0,0,0,.3-.471.387.387,0,0,0-.6-.307.425.425,0,0,0-.16.48.362.362,0,0,0,.258.313s.068.9.083,1.076.057.185.194.165a1.131,1.131,0,0,0,.2-.043l-.016-.168Zm-.188-1.279c-.184-.018-.233-.438.052-.408a.207.207,0,0,1-.052.408Z" transform="translate(-43.562 -49.912)"/><g transform="translate(5.372 15.106)"><path class="k" d="M48.657,65.01a.039.039,0,0,1-.039-.039v-.513c0-.3.106-.349.244-.379l.026-.006a.113.113,0,0,1,.1.023c.148.12.139.668.137.73a.039.039,0,0,1-.039.038h0a.039.039,0,0,1-.038-.04c.006-.219-.019-.594-.108-.667a.037.037,0,0,0-.034-.008l-.027.006c-.106.023-.182.04-.182.3v.513A.039.039,0,0,1,48.657,65.01Z" transform="translate(-48.618 -64.068)"/></g><path class="j" d="M48.952,63.124v.44c0,.137.078.215.17.156s.078-.182.078-.365,0-.244,0-.244Z" transform="translate(-43.467 -48.328)"/><path class="a" d="M51.218,62.188a1.82,1.82,0,0,0-.894,1.1c-.135.7.092,1.192.585,1.258s.866-.14.875-.363-.539-.145-.539-.145.7-.548.7-.939S51.218,62.188,51.218,62.188Z" transform="translate(-44.35 -47.717)"/><path class="b" d="M52.359,37.961c-.817.185-.875,1.575-.448,3.02a11.963,11.963,0,0,0,1.451,2.913s-1.377,1.482-1.686,1.7c-.646.449-.894.822-.316,1.387.393.385.907.768,1.229.582a5.16,5.16,0,0,0,1.191-.994c.38-.371,1.643-1.42,1.784-2.2a27.691,27.691,0,0,0-1.28-4.119C53.762,38.613,53.137,37.785,52.359,37.961Z" transform="translate(-44.848 -31.646)"/><path class="b" d="M44.9,35.031A6.967,6.967,0,0,1,44,36.4c-.326.466-1.449,1.787-1.449,1.787a12.629,12.629,0,0,1-.062-1.787,5.408,5.408,0,0,1,.489-1.528l-.241-.133a7.5,7.5,0,0,0-.7,2.041,10.247,10.247,0,0,0,.312,2.416s.71-.839,1.407-1.614a8.4,8.4,0,0,0,1.265-1.663,2.825,2.825,0,0,0,.322-.7C45.2,35.161,45.049,35.091,44.9,35.031Z" transform="translate(-38.879 -29.529)"/><path class="j" d="M43.219,34.894a5.446,5.446,0,0,0-.045,1.2,2.094,2.094,0,0,0-.849.045,2.117,2.117,0,0,1,.555-1.558C42.93,34.533,43.048,34.7,43.219,34.894Z" transform="translate(-39.057 -29.414)"/><path class="j" d="M46.829,33.773a1.962,1.962,0,0,1,.272.646c0,.6-1.051,1.7-1.468,1.858a7.286,7.286,0,0,0-.739-.715,3.169,3.169,0,0,1,.774-.628A4.205,4.205,0,0,0,46.829,33.773Z" transform="translate(-40.778 -28.886)"/><g transform="translate(2.036 1.013)"><g transform="translate(0.999 0.429)"><path class="a" d="M44.675,24.156a1.583,1.583,0,0,0-2.6.192c-.89,1.317-.049,3.469.73,3.343a3.035,3.035,0,0,0,1.849-1.171A2.369,2.369,0,0,0,44.675,24.156Z" transform="translate(-41.689 -23.56)"/></g><path class="l" d="M41.651,23.945a1.324,1.324,0,0,0,1.188.665,2.887,2.887,0,0,0,1.063-.146l-.051.793a.689.689,0,0,0,.218-.03c.078-.3.207-.372.355-.245.166.144.142.7.142.7a1.977,1.977,0,0,0-.907-3.37,1.917,1.917,0,0,0-2.028.967A.731.731,0,0,0,41.651,23.945Z" transform="translate(-40.604 -22.288)"/><path class="d" d="M39.575,25.657s-1.222.67-.731,1.137a3.143,3.143,0,0,0,3.7-.235Z" transform="translate(-38.727 -24.521)"/><path class="m" d="M40.95,24.741v-.563a2.243,2.243,0,0,0,1.893.92,6.127,6.127,0,0,0,1.949-.143l-.012.552a3.634,3.634,0,0,1-2.383.08C41.083,25.3,40.95,24.741,40.95,24.741Z" transform="translate(-40.2 -23.541)"/></g><path class="d" d="M39.937,20.11a.776.776,0,0,0-.338.632c0,.282.338-.17.338-.17Z" transform="translate(-37.269 -19.832)"/><path class="f" d="M41.484,24.661a.6.6,0,0,0,.334.773c.383.175.526-.33.526-.33Z" transform="translate(-38.493 -22.848)"/><path class="d" d="M43.691,22.169a4.624,4.624,0,0,1-3.494-.825c-.891-.708-.771-1.485.267-1.737a4.621,4.621,0,0,1,3.494.825C44.849,21.14,44.73,21.917,43.691,22.169Z" transform="translate(-37.269 -19.447)"/><path class="n" d="M43.964,21.9a4.858,4.858,0,0,1-3.416-.945c-.895-.71-.816-1.439.175-1.628a4.859,4.859,0,0,1,3.416.945C45.034,20.986,44.956,21.715,43.964,21.9Z" transform="translate(-37.485 -19.286)"/><path class="e" d="M57.2,43.184s-.525.276-.86.406-.623.258-.623.258a4.163,4.163,0,0,0,.769,1.556,1.154,1.154,0,0,0,1.475,0Z" transform="translate(-47.951 -35.123)"/><path class="e" d="M37.092,35.822a2.1,2.1,0,0,0,.232.412,2.253,2.253,0,0,0,.257.222s-.525.874-.89,1.043S36,37.208,36,37.208A7.068,7.068,0,0,1,37.092,35.822Z" transform="translate(-34.883 -30.244)"/><path class="f" d="M46.692,44.05l-.129.443,1.488.756.156-.458Z" transform="translate(-41.884 -35.697)"/><g transform="translate(6.019 5.895)"><path class="n" d="M52.118,37.339a2.362,2.362,0,0,1,.342-.534c.136-.124.167.061.167.061s-.085.019-.233.258a2.175,2.175,0,0,0-.147.271Z" transform="translate(-51.584 -36.762)"/><path class="d" d="M51.247,38.206s-.565.865-.07,1.151.9-.723.9-.723Z" transform="translate(-50.826 -37.719)"/><path class="d" d="M51.006,39.859a.618.618,0,0,1-.286-.3c-.084-.21,1.034-.593,1.034-.593l.148.173Z" transform="translate(-50.655 -38.221)"/><path class="n" d="M50.808,37.692s-.565.865-.07,1.151.9-.722.9-.722Z" transform="translate(-50.535 -37.378)"/><g transform="translate(0.148 0.361)"><path class="o" d="M51.207,38.429l.649.33c.022-.036.041-.07.058-.1l-.66-.333C51.238,38.356,51.222,38.391,51.207,38.429Z" transform="translate(-51.128 -38.159)"/><path class="o" d="M51.008,39.042l.577.293a1.168,1.168,0,0,0,.085-.106l-.63-.318A1.022,1.022,0,0,0,51.008,39.042Z" transform="translate(-50.996 -38.548)"/><path class="o" d="M51.133,39.917a.3.3,0,0,0,.355-.05l-.514-.259A.324.324,0,0,0,51.133,39.917Z" transform="translate(-50.974 -39.01)"/><path class="o" d="M52.173,38.169l-.646-.335s-.021.034-.046.078l.658.334C52.159,38.2,52.173,38.169,52.173,38.169Z" transform="translate(-51.31 -37.834)"/><path class="j" d="M51.392,38.065c-.013.024-.029.054-.046.087l.66.333c.017-.032.032-.062.043-.086Z" transform="translate(-51.22 -37.987)"/><path class="j" d="M51.1,38.729l.63.318c.019-.027.037-.054.054-.081l-.649-.33C51.127,38.666,51.115,38.7,51.1,38.729Z" transform="translate(-51.061 -38.365)"/><path class="j" d="M50.974,39.4l.514.259a.772.772,0,0,0,.075-.07l-.577-.293A.7.7,0,0,0,50.974,39.4Z" transform="translate(-50.974 -38.804)"/></g></g></g><g transform="translate(-159.741 19.51)"><path class="a" d="M334.9,184.075a7.572,7.572,0,0,1-1.242.851,11.7,11.7,0,0,0-1.759.876c-.37.314-.847.877-1.37.95a4.3,4.3,0,0,1-1.388.072c-.256-.1-.421-.594.092-.864a3.224,3.224,0,0,0,.956-.694c.153-.1-.306-.328-.537-.458s-.17-.354.1-.249a9.158,9.158,0,0,0,.973.053.939.939,0,0,0,.85-.026c.323-.183,1.4-1,1.993-1.467a7.991,7.991,0,0,0,.712-.606Z" transform="translate(-328.899 -173.741)"/><path class="b" d="M324.7,171.376a1.433,1.433,0,0,0-1.221.47,32.507,32.507,0,0,0-2.4,2.473,7.461,7.461,0,0,1-2.2,2.231c-.806.423-.828.7-.805.833.008.05-.005,1.109.764,1.105s1.991-1.111,2.538-1.392a6.793,6.793,0,0,0,1.924-1.774,1.474,1.474,0,0,1,.785-.528s1.353-2.763,1.157-3.117A.547.547,0,0,0,324.7,171.376Z" transform="translate(-315.599 -166.354)"/><path class="c" d="M321.278,244.4s-.372.4-.868.888c-.459.448-.6.577-1.028.993-.249.243-.044.466.431.448a8.534,8.534,0,0,0,1.891-.409,9.627,9.627,0,0,0,1.415-.738.938.938,0,0,0,.42-.531V244.3Z" transform="translate(-314.289 -214.69)"/><path class="c" d="M304.994,251.138s-.086.766-.139,1.728.083,1.812.377,1.918,1.132.093,1.608-1.243a5.315,5.315,0,0,0,.192-2.632Z" transform="translate(-293 -219.067)"/><path class="d" d="M309.433,199.441a5.466,5.466,0,0,0-1.336-4.183c.12-.924-4.165.369-4.165.369s-.918,4.967-1.305,7.583a60.36,60.36,0,0,0-.248,8.279s.056.646,1.163.642a2.547,2.547,0,0,0,1.55-.695l.088-6.2,1.151-4.247a31.868,31.868,0,0,0,.468,5.945c.733,2.561.5,7.462.5,7.462a3.659,3.659,0,0,0,2.422.021c.984-.492.791-1.042.791-1.042s.32-4.208-.945-7.056C309.46,204.162,309.353,200.7,309.433,199.441Z" transform="translate(-295.585 -181.967)"/><path class="c" d="M305.793,201.779l-.08.6a4.1,4.1,0,0,0,2.911,1.066,6.235,6.235,0,0,0,2.966-.617l-.1-.531Z" transform="translate(-297.767 -186.509)"/><g transform="translate(12.087 16.311)"><path class="h" d="M307.829,212.287l-.079-1.069a.418.418,0,0,0,.3-.471.387.387,0,0,0-.6-.307.425.425,0,0,0-.16.48.363.363,0,0,0,.258.313s.068.9.083,1.076.057.185.194.165a1.122,1.122,0,0,0,.2-.043l-.016-.168Zm-.188-1.279c-.184-.018-.233-.438.052-.408a.207.207,0,0,1-.052.408Z" transform="translate(-306.851 -208.516)"/><path class="i" d="M308.773,209.528l.158-1.061a.419.419,0,0,0,.4-.393.387.387,0,0,0-.515-.43.425.425,0,0,0-.261.433.362.362,0,0,0,.183.362s-.131.893-.156,1.068.015.193.153.2a1.145,1.145,0,0,0,.206,0l.021-.168Zm.1-1.29c-.175-.058-.131-.478.14-.387a.207.207,0,0,1-.14.387Z" transform="translate(-308.553 -206.689)"/><path class="j" d="M307.6,209.165l-.079-1.069a.419.419,0,0,0,.3-.471.387.387,0,0,0-.6-.307.425.425,0,0,0-.16.48.362.362,0,0,0,.258.313s.068.9.083,1.076.057.185.194.165a1.121,1.121,0,0,0,.2-.043l-.016-.168Zm-.188-1.279c-.184-.018-.233-.438.052-.408a.207.207,0,0,1-.052.408Z" transform="translate(-306.541 -206.448)"/><g transform="translate(0.35 0.323)"><path class="k" d="M308.352,206.763a.039.039,0,0,1-.039-.039v-.514c0-.3.106-.349.244-.379l.026-.006a.113.113,0,0,1,.1.023c.148.12.139.668.137.73a.039.039,0,0,1-.039.038h0a.039.039,0,0,1-.038-.04c.005-.219-.019-.594-.108-.667a.037.037,0,0,0-.034-.008l-.027.006c-.106.023-.182.04-.182.3v.514A.039.039,0,0,1,308.352,206.763Z" transform="translate(-308.313 -205.821)"/></g><path class="j" d="M308.753,204.877v.44c0,.136.079.215.17.156s.078-.183.078-.365,0-.244,0-.244Z" transform="translate(-308.29 -204.864)"/></g><path class="e" d="M305.42,182.407c.056.2.26.315.412.454a5.3,5.3,0,0,0,5.793.612c.285-.153.173-.692.145-.988a13.312,13.312,0,0,0-.27-1.77c-.444-1.839.373-5.115.307-5.612-.111-.83-1.8-1.415-1.8-1.415a7.169,7.169,0,0,0-3.056-.617,4.864,4.864,0,0,0-1.656,2.883c-.087.838.274,3.216.282,5.067A5.668,5.668,0,0,0,305.42,182.407Z" transform="translate(-297.846 -167.472)"/><g transform="translate(5.48 8.717)"><path class="p" d="M317.356,197.283s.568.869.8,1.33c.171.339.459.9.606,1.222a.383.383,0,0,1-.708.287c-.113-.186-.468-.839-.649-1.233-.127-.276-.616-1.361-.616-1.361Z" transform="translate(-314.181 -192.247)"/><path class="q" d="M323.816,187.952l-2.627-5.2-.545.243-.2.256,2.657,5.094Z" transform="translate(-320.439 -182.615)"/><path class="r" d="M323.155,187.564l-2.59-5.212-.813.377,2.685,5.226Z" transform="translate(-319.546 -182.352)"/></g><path class="a" d="M316.579,198.818a9.968,9.968,0,0,0-1.049-.208.37.37,0,0,0-.344.234,1.212,1.212,0,0,0-.584.2c-.16.162-.133.245-.083.368s-.072.258-.01.377.2.172.214.317-.021.2.236.307c.075.033.076.187.117.23.18.191.557.064.744-.012.23-.094,1.3-.669,1.3-.669Z" transform="translate(-306.253 -184.409)"/><path class="b" d="M300.589,183.6c.277.632.663,1.361,1.533,1.351.527-.006.907-.753.907-1.281a17.33,17.33,0,0,0-.492-3.942c-.381-1.609-.67-2.712-1.646-2.589-.379.242-.633,1.463-.633,2.723l.332,3.716Z" transform="translate(-287.366 -170.171)"/><path class="b" d="M300.961,195.788a1.263,1.263,0,0,0,.14,1.04c.185.312.311.548.5.581a6.553,6.553,0,0,0,1.795-.308c.543-.118,2.413-.239,2.864-1.189.264-.557-1.131-1.6-1.844-1.551a9.944,9.944,0,0,0-2.615,1.086C301.371,195.681,301.063,195.585,300.961,195.788Z" transform="translate(-290.846 -181.592)"/><g transform="translate(7.731 0)"><path class="f" d="M314.095,176.788s-.058.661-.113,1.233a8.279,8.279,0,0,0,.215,1.787s1.037-1.062,1.258-1.31a5.683,5.683,0,0,0,.535-.852Z" transform="translate(-312.684 -169.948)"/><g transform="translate(1.878 4.5)"><path class="g" d="M313.779,171.4l-.28-1.553-1.676,1.217-.2,1.156a1.289,1.289,0,0,0-.093.581C312.343,172.4,313.252,172.207,313.779,171.4Z" transform="translate(-311.527 -169.852)"/></g><path class="d" d="M317.5,180.755c.145-.127.294-.25.444-.372l.117-1.21-.249-.027a7.018,7.018,0,0,0-.436.914.145.145,0,0,1,.027.084A2.242,2.242,0,0,0,317.5,180.755Z" transform="translate(-315.904 -171.511)"/><path class="d" d="M316.536,177.406a1.348,1.348,0,0,0-.056.835c.023.05.323.085.323.085a2.629,2.629,0,0,0,.348-.755.556.556,0,0,0-.39-.014A.458.458,0,0,0,316.536,177.406Z" transform="translate(-314.674 -170.357)"/><path class="b" d="M313.511,173.811a6.967,6.967,0,0,1-.9,1.372c-.326.466-1.449,1.787-1.449,1.787a12.665,12.665,0,0,1-.062-1.787,5.408,5.408,0,0,1,.489-1.528l-.241-.133a7.5,7.5,0,0,0-.695,2.041,10.247,10.247,0,0,0,.312,2.416s.71-.839,1.406-1.614a8.385,8.385,0,0,0,1.265-1.663,2.813,2.813,0,0,0,.323-.7C313.807,173.941,313.659,173.871,313.511,173.811Z" transform="translate(-309.525 -167.784)"/><path class="j" d="M318.394,173.674a5.446,5.446,0,0,0-.045,1.2,2.092,2.092,0,0,0-.849.045,2.119,2.119,0,0,1,.554-1.558C318.106,173.313,318.224,173.479,318.394,173.674Z" transform="translate(-316.269 -167.669)"/><path class="j" d="M313,172.553a1.961,1.961,0,0,1,.272.646c0,.6-1.051,1.7-1.468,1.858a7.244,7.244,0,0,0-.739-.715,3.169,3.169,0,0,1,.774-.628A4.2,4.2,0,0,0,313,172.553Z" transform="translate(-308.984 -167.141)"/><g transform="translate(0 1.538)"><g transform="translate(0.999 0.429)"><path class="a" d="M314.049,162.936a1.583,1.583,0,0,0-2.6.192c-.89,1.317-.049,3.469.73,3.343a3.034,3.034,0,0,0,1.849-1.171A2.369,2.369,0,0,0,314.049,162.936Z" transform="translate(-311.064 -162.34)"/></g><path class="l" d="M310.269,162.725a1.323,1.323,0,0,0,1.188.665,2.885,2.885,0,0,0,1.063-.146l-.051.793a.689.689,0,0,0,.218-.03c.079-.3.207-.372.355-.245.166.144.142.7.142.7a1.977,1.977,0,0,0-.907-3.37,1.916,1.916,0,0,0-2.027.967A.73.73,0,0,0,310.269,162.725Z" transform="translate(-309.222 -161.068)"/><path class="d" d="M313.318,164.437s-1.222.67-.731,1.137a3.143,3.143,0,0,0,3.7-.235Z" transform="translate(-312.471 -163.301)"/><path class="m" d="M310.158,163.521v-.563a2.242,2.242,0,0,0,1.893.92,6.13,6.13,0,0,0,1.95-.143l-.012.552a3.635,3.635,0,0,1-2.383.08C310.291,164.083,310.158,163.521,310.158,163.521Z" transform="translate(-309.408 -162.321)"/></g><path class="d" d="M322.237,158.89a.776.776,0,0,0-.338.632c0,.282.338-.17.338-.17Z" transform="translate(-321.605 -158.087)"/><path class="f" d="M318.43,163.441a.6.6,0,0,0,.334.773c.383.175.526-.33.526-.33Z" transform="translate(-317.475 -161.103)"/><ellipse class="d" cx="2.541" cy="1.237" rx="2.541" ry="1.237" transform="translate(4.916 3.808) rotate(-165.297)"/><ellipse class="n" cx="2.515" cy="1.138" rx="2.515" ry="1.138" transform="translate(4.866 3.712) rotate(-162.102)"/></g><g transform="translate(11.91 6.476)"><path class="n" d="M308.3,176.286a2.363,2.363,0,0,1,.342-.534c.136-.124.167.061.167.061s-.085.019-.233.258a2.132,2.132,0,0,0-.147.27Z" transform="translate(-307.761 -175.709)"/><path class="d" d="M307.962,177.153s-.564.865-.07,1.151.9-.722.9-.722Z" transform="translate(-307.541 -176.666)"/><path class="d" d="M307.979,178.806a.616.616,0,0,1-.285-.3c-.084-.21,1.034-.592,1.034-.592l.148.173Z" transform="translate(-307.628 -177.168)"/><path class="n" d="M308.4,176.639s-.564.865-.07,1.151.9-.722.9-.722Z" transform="translate(-308.127 -176.325)"/><g transform="translate(0.148 0.362)"><path class="o" d="M308.616,177.375l.649.33c.022-.036.041-.07.058-.1l-.66-.333C308.647,177.3,308.631,177.338,308.616,177.375Z" transform="translate(-308.537 -177.105)"/><path class="o" d="M308.948,177.989l.577.293a1.078,1.078,0,0,0,.085-.106l-.63-.317A.967.967,0,0,0,308.948,177.989Z" transform="translate(-308.936 -177.495)"/><path class="o" d="M309.581,178.864a.3.3,0,0,0,.355-.05l-.514-.259A.324.324,0,0,0,309.581,178.864Z" transform="translate(-309.422 -177.957)"/><path class="o" d="M309.079,177.116l-.646-.335s-.021.034-.046.078l.658.334C309.065,177.15,309.079,177.116,309.079,177.116Z" transform="translate(-308.216 -176.781)"/><path class="j" d="M308.534,177.011c-.014.025-.029.054-.046.087l.66.333c.017-.032.032-.062.043-.086Z" transform="translate(-308.362 -176.933)"/><path class="j" d="M308.789,177.675l.63.317q.029-.041.054-.081l-.649-.33C308.811,177.612,308.8,177.643,308.789,177.675Z" transform="translate(-308.745 -177.312)"/><path class="j" d="M309.2,178.35l.514.259a.734.734,0,0,0,.075-.071l-.577-.293A.694.694,0,0,0,309.2,178.35Z" transform="translate(-309.2 -177.751)"/></g></g><path class="f" d="M310.163,180.763l-.129.443,1.488.756.156-.458Z" transform="translate(-299.312 -172.582)"/><path class="e" d="M302.094,182.33s-.852.275-1.139.327a3.293,3.293,0,0,0,.455,1.618c.246.494,1.156.209,1.156.209S302.251,182.861,302.094,182.33Z" transform="translate(-287.131 -173.621)"/><path class="e" d="M321.551,173.551s.277.541.731.208a5.42,5.42,0,0,0,.977-.924l-.408-.545A15.689,15.689,0,0,0,321.551,173.551Z" transform="translate(-314.778 -166.966)"/></g></g></svg>